# xmcd CD database file
#
# Track frame offsets:
#	150
#	12027
#	22295
#	35510
#	46857
#	59807
#	71542
#	82952
#	96982
#	109235
#	121002
#	135740
#	147505
#	159767
#	172805
#	185062
#	196917
#	208572
#	222637
#	234677
#	248735
#	261225
#	271900
#	283825
#	297595
#	307952
#	321130
#
# Disc length: 4412 seconds
#
# Revision: 1
# Processed by: cddbd v1.5.2PL0 Copyright (c) Steve Scherf et al.
# Submitted via: CDex 1.70beta2
#
DISCID=9a113a1b
DTITLE=Little Jimmy Dickens - Out Behind The Barn Disc 2
DYEAR=2001
DGENRE=Country
TTITLE0=Careless Darlin'
TTITLE1=Fire Ball Mail
TTITLE2=I Cried Again
TTITLE3=Tomorrow Never Comes
TTITLE4=John Henry
TTITLE5=Have I Told You Lately That I Love You
TTITLE6=Tomorrow's Just Another Day To Cry
TTITLE7=A Petal From A Faded Rose
TTITLE8=Singing Waterfall
TTITLE9=Pins And Needles
TTITLE10=My Heart's Bouquet
TTITLE11=Talking To The Wall
TTITLE12=Eight More Miles
TTITLE13=Farewell Party
TTITLE14=Twenty Cigarettes
TTITLE15=It's Me That Hurts The Most
TTITLE16=Honky Tonk Troubles
TTITLE17=The Whole World Seems Different
TTITLE18=String Eraser And Blotter
TTITLE19=Before I Met You
TTITLE20=The Best Years Of Your Life
TTITLE21=Slowly
TTITLE22=Out Behind The Barn
TTITLE23=I'm Making Love To A Stranger
TTITLE24=Night Train To Memphis
TTITLE25=The Violet And A Rose
TTITLE26=Out Behind The Barn
EXTD=YEAR: 2001
EXTT0=
EXTT1=
EXTT2=
EXTT3=
EXTT4=
EXTT5=
EXTT6=
EXTT7=
EXTT8=
EXTT9=
EXTT10=
EXTT11=
EXTT12=
EXTT13=
EXTT14=
EXTT15=
EXTT16=
EXTT17=
EXTT18=
EXTT19=
EXTT20=
EXTT21=
EXTT22=
EXTT23=
EXTT24=
EXTT25=
EXTT26=
PLAYORDER=
